<svg width="20" height="20" viewBox="0 0 20 20" fill="none" xmlns="http://www.w3.org/2000/svg">
<path opacity="0.4" d="M10 20C7.34784 20 4.8043 18.9464 2.92893 17.0711C1.05357 15.1957 0 12.6522 0 10C0 7.34784 1.05357 4.8043 2.92893 2.92893C4.8043 1.05357 7.34784 0 10 0C12.6522 0 15.1957 1.05357 17.0711 2.92893C18.9464 4.8043 20 7.34784 20 10C20 12.6522 18.9464 15.1957 17.0711 17.0711C15.1957 18.9464 12.6522 20 10 20Z" fill="#D1D4DB"/>
<path d="M12.8299 7.16992L7.16992 12.8299" stroke="#5E6678" stroke-width="1.5" stroke-linecap="round" stroke-linejoin="round"/>
<path d="M12.8299 12.8299L7.16992 7.16992" stroke="#5E6678" stroke-width="1.5" stroke-linecap="round" stroke-linejoin="round"/>
</svg>
