<svg width="24" height="24" viewBox="0 0 24 24" fill="none" xmlns="http://www.w3.org/2000/svg">
<path fill-rule="evenodd" clip-rule="evenodd" d="M20.4174 4.77984C20.7103 4.48695 20.7103 4.01207 20.4174 3.71918C20.1245 3.42629 19.6496 3.42629 19.3567 3.71918L17.2687 5.8072C15.6809 4.69904 13.8834 4.08447 11.9995 4.08447C9.91575 4.08447 7.92414 4.83444 6.21899 6.18364C4.507 7.53036 3.08476 9.46898 2.06095 11.8402C1.97925 12.0294 1.97902 12.2439 2.06033 12.4333C2.94498 14.4942 4.13396 16.2258 5.55388 17.522L3.58271 19.4932C3.28981 19.7861 3.28981 20.2609 3.58271 20.5538C3.8756 20.8467 4.35047 20.8467 4.64337 20.5538L20.4174 4.77984ZM6.61582 16.4601L8.75401 14.3219C8.33109 13.6992 8.08569 12.9505 8.08569 12.1377C8.08569 9.97093 9.83302 8.22168 11.9997 8.22168C12.8027 8.22168 13.5604 8.4656 14.1863 8.88962L16.1886 6.88728C14.8852 6.03324 13.4607 5.58447 11.9995 5.58447C10.2876 5.58447 8.6176 6.19824 7.14895 7.36057L7.14715 7.36199C5.73317 8.47406 4.49967 10.0924 3.56945 12.1383C4.37855 13.9268 5.42221 15.3851 6.61582 16.4601ZM13.0931 9.98277C12.7659 9.81598 12.3929 9.72168 11.9997 9.72168C10.6624 9.72168 9.58569 10.7984 9.58569 12.1377C9.58569 12.5337 9.67888 12.9029 9.84653 13.2294L13.0931 9.98277ZM15.2375 11.9607C15.6452 12.034 15.9162 12.4239 15.8429 12.8316C15.5556 14.4294 14.2989 15.6889 12.7017 15.9788C12.2942 16.0528 11.9038 15.7824 11.8298 15.3748C11.7558 14.9673 12.0262 14.5769 12.4338 14.5029C13.4147 14.3249 14.19 13.5483 14.3666 12.5661C14.4399 12.1584 14.8298 11.8874 15.2375 11.9607ZM18.9964 8.39155C19.3274 8.14245 19.7976 8.20878 20.0467 8.53972C20.7742 9.50615 21.408 10.6137 21.9379 11.8391C22.02 12.0289 22.02 12.2441 21.9381 12.434C19.8962 17.1644 16.2025 20.1888 11.9995 20.1888C11.0548 20.1888 10.1237 20.0354 9.23006 19.7372C8.83715 19.6061 8.62493 19.1812 8.75606 18.7883C8.88719 18.3954 9.31201 18.1832 9.70492 18.3143C10.4473 18.5621 11.2182 18.6888 11.9995 18.6888C15.3325 18.6888 18.5198 16.3345 20.4291 12.137C19.9702 11.129 19.4393 10.2269 18.8483 9.44181C18.5992 9.11088 18.6655 8.64066 18.9964 8.39155Z" fill="#5E6678"/>
</svg>
