<svg width="44" height="44" viewBox="0 0 44 44" fill="none" xmlns="http://www.w3.org/2000/svg">
<path d="M22 44C21.1716 44 20.5 43.3284 20.5 42.5C20.5 41.6716 21.1716 41 22 41C32.4934 41 41 32.4934 41 22C41 11.5066 32.4934 3 22 3C11.5066 3 3 11.5066 3 22C3 25.1592 3.77066 28.2039 5.22381 30.9282C5.6137 31.6592 5.33721 32.5678 4.60627 32.9577C3.87532 33.3476 2.96671 33.0711 2.57682 32.3401C0.893286 29.1839 0 25.6547 0 22C0 9.84974 9.84974 0 22 0C34.1503 0 44 9.84974 44 22C44 34.1503 34.1503 44 22 44Z"/>
</svg>
