<svg width="32" height="32" viewBox="0 0 32 32" fill="none" xmlns="http://www.w3.org/2000/svg">
<path opacity="0.4" fill-rule="evenodd" clip-rule="evenodd" d="M16 4C14.4241 4 12.8637 4.31039 11.4078 4.91344C9.9519 5.5165 8.62903 6.40041 7.51472 7.51472C6.40042 8.62902 5.5165 9.95189 4.91345 11.4078C4.31039 12.8637 4 14.4241 4 16C4 17.5759 4.31039 19.1363 4.91344 20.5922C5.5165 22.0481 6.40041 23.371 7.51472 24.4853C8.62902 25.5996 9.95189 26.4835 11.4078 27.0866C12.8637 27.6896 14.4241 28 16 28C17.5759 28 19.1363 27.6896 20.5922 27.0866C22.0481 26.4835 23.371 25.5996 24.4853 24.4853C25.5996 23.371 26.4835 22.0481 27.0866 20.5922C27.6896 19.1363 28 17.5759 28 16C28 14.4241 27.6896 12.8637 27.0866 11.4078C26.4835 9.9519 25.5996 8.62903 24.4853 7.51472C23.371 6.40042 22.0481 5.51651 20.5922 4.91345C19.1363 4.31039 17.5759 4 16 4ZM32 16C32 18.1012 31.5862 20.1817 30.7821 22.1229C29.978 24.0641 28.7994 25.828 27.3137 27.3137C25.828 28.7994 24.0641 29.978 22.1229 30.7821C20.1817 31.5861 18.1012 32 16 32C13.8988 32 11.8183 31.5861 9.87706 30.7821C7.93585 29.978 6.17203 28.7994 4.68629 27.3137C3.20055 25.828 2.022 24.0641 1.21793 22.1229C0.413851 20.1817 -7.15255e-07 18.1011 0 16C7.15257e-07 13.8988 0.413854 11.8183 1.21793 9.87706C2.02201 7.93585 3.20056 6.17202 4.6863 4.68629C6.17204 3.20055 7.93586 2.022 9.87707 1.21792C11.8183 0.41385 13.8989 -9.53673e-07 16 0C18.1012 1.07289e-06 20.1817 0.413854 22.1229 1.21793C24.0642 2.02201 25.828 3.20056 27.3137 4.6863C28.7995 6.17204 29.978 7.93586 30.7821 9.87707C31.5862 11.8183 32 13.8989 32 16Z"/>
<path fill-rule="evenodd" clip-rule="evenodd" d="M14 2C14 0.895429 14.8954 -4.76837e-07 16 0C18.1012 1.07288e-06 20.1817 0.413854 22.1229 1.21793C24.0642 2.02201 25.828 3.20056 27.3137 4.6863C28.7995 6.17204 29.978 7.93586 30.7821 9.87707C31.5862 11.8183 32 13.8989 32 16C32 18.1012 31.5862 20.1817 30.7821 22.1229C29.978 24.0641 28.7994 25.828 27.3137 27.3137C26.5327 28.0948 25.2663 28.0948 24.4853 27.3137C23.7042 26.5327 23.7042 25.2663 24.4853 24.4853C25.5996 23.371 26.4835 22.0481 27.0866 20.5922C27.6896 19.1363 28 17.5759 28 16C28 14.4241 27.6896 12.8637 27.0866 11.4078C26.4835 9.9519 25.5996 8.62903 24.4853 7.51472C23.371 6.40042 22.0481 5.51651 20.5922 4.91345C19.1363 4.31039 17.5759 4 16 4C14.8954 4 14 3.10457 14 2Z"/>
</svg>
