<svg viewBox="0 0 48 48" fill="none" xmlns="http://www.w3.org/2000/svg">
<path opacity="0.4" fill-rule="evenodd" clip-rule="evenodd" d="M24 5C21.5049 5 19.0342 5.49145 16.729 6.44629C14.4238 7.40112 12.3293 8.80065 10.565 10.565C8.80066 12.3293 7.40113 14.4238 6.44629 16.729C5.49145 19.0342 5 21.5049 5 24C5 26.4951 5.49145 28.9658 6.44629 31.271C7.40113 33.5762 8.80066 35.6707 10.565 37.435C12.3293 39.1993 14.4238 40.5989 16.729 41.5537C19.0342 42.5085 21.5049 43 24 43C26.4951 43 28.9658 42.5086 31.271 41.5537C33.5762 40.5989 35.6707 39.1993 37.435 37.435C39.1993 35.6707 40.5989 33.5762 41.5537 31.271C42.5086 28.9658 43 26.4951 43 24C43 21.5049 42.5086 19.0342 41.5537 16.729C40.5989 14.4238 39.1994 12.3293 37.435 10.565C35.6707 8.80066 33.5762 7.40113 31.271 6.44629C28.9658 5.49145 26.4951 5 24 5ZM15.1983 2.75077C17.9888 1.59491 20.9796 0.999999 24 1C27.0204 1 30.0112 1.59492 32.8017 2.75078C35.5922 3.90664 38.1277 5.6008 40.2635 7.73655C42.3992 9.8723 44.0934 12.4078 45.2492 15.1983C46.4051 17.9888 47 20.9796 47 24C47 27.0204 46.4051 30.0112 45.2492 32.8017C44.0934 35.5922 42.3992 38.1277 40.2635 40.2635C38.1277 42.3992 35.5922 44.0934 32.8017 45.2492C30.0112 46.4051 27.0204 47 24 47C20.9796 47 17.9888 46.4051 15.1983 45.2492C12.4078 44.0934 9.87229 42.3992 7.73654 40.2635C5.60079 38.1277 3.90663 35.5922 2.75077 32.8017C1.59491 30.0112 0.999999 27.0204 1 24C1 20.9796 1.59491 17.9888 2.75077 15.1983C3.90663 12.4078 5.6008 9.87228 7.73655 7.73654C9.8723 5.60079 12.4078 3.90662 15.1983 2.75077Z"/>
<path fill-rule="evenodd" clip-rule="evenodd" d="M22 3C22 1.89543 22.8954 1 24 1C27.0204 1 30.0112 1.59492 32.8017 2.75078C35.5922 3.90664 38.1277 5.6008 40.2635 7.73655C42.3992 9.8723 44.0934 12.4078 45.2492 15.1983C46.4051 17.9888 47 20.9796 47 24C47 27.0204 46.4051 30.0112 45.2492 32.8017C44.0934 35.5922 42.3992 38.1277 40.2635 40.2635C39.4824 41.0445 38.2161 41.0445 37.435 40.2635C36.654 39.4824 36.654 38.2161 37.435 37.435C39.1993 35.6707 40.5989 33.5762 41.5537 31.271C42.5086 28.9658 43 26.4951 43 24C43 21.5049 42.5086 19.0342 41.5537 16.729C40.5989 14.4238 39.1994 12.3293 37.435 10.565C35.6707 8.80066 33.5762 7.40113 31.271 6.44629C28.9658 5.49145 26.4951 5 24 5C22.8954 5 22 4.10457 22 3Z"/>
</svg>
