<svg width="48" height="48" viewBox="0 0 48 48" fill="none" xmlns="http://www.w3.org/2000/svg">
<path opacity="0.4" fill-rule="evenodd" clip-rule="evenodd" d="M24 44C35.0457 44 44 35.0457 44 24C44 12.9543 35.0457 4 24 4C12.9543 4 4 12.9543 4 24C4 35.0457 12.9543 44 24 44ZM24 48C37.2548 48 48 37.2548 48 24C48 10.7452 37.2548 0 24 0C10.7452 0 0 10.7452 0 24C0 37.2548 10.7452 48 24 48Z"/>
<path fill-rule="evenodd" clip-rule="evenodd" d="M23.8182 4C12.8791 4 4 12.8988 4 23.8897C4 29.258 6.1164 34.125 9.56017 37.7042C10.326 38.5002 10.3016 39.7663 9.50565 40.5321C8.70969 41.298 7.4436 41.2736 6.67775 40.4776C2.54453 36.1819 0 30.3313 0 23.8897C0 10.702 10.6576 0 23.8182 0C24.9228 0 25.8182 0.89543 25.8182 2C25.8182 3.10457 24.9228 4 23.8182 4Z" />
</svg>
