<svg width="32" height="32" viewBox="0 0 32 32" fill="none" xmlns="http://www.w3.org/2000/svg">
<path opacity="0.4" fill-rule="evenodd" clip-rule="evenodd" d="M16 28C22.6274 28 28 22.6274 28 16C28 9.37258 22.6274 4 16 4C9.37258 4 4 9.37258 4 16C4 22.6274 9.37258 28 16 28ZM16 32C24.8366 32 32 24.8366 32 16C32 7.16344 24.8366 0 16 0C7.16344 0 0 7.16344 0 16C0 24.8366 7.16344 32 16 32Z"/>
<path fill-rule="evenodd" clip-rule="evenodd" d="M16 4C9.39447 4 4 9.42396 4 16.1639C4 19.4534 5.28531 22.431 7.37333 24.6193C8.13584 25.4185 8.10614 26.6845 7.30699 27.447C6.50783 28.2095 5.24185 28.1798 4.47934 27.3807C1.70545 24.4735 0 20.5161 0 16.1639C0 7.25885 7.14156 0 16 0C17.1046 0 18 0.89543 18 2C18 3.10457 17.1046 4 16 4Z"/>
</svg>
