<svg width="24" height="24" viewBox="0 0 24 24" fill="none" xmlns="http://www.w3.org/2000/svg">
<path opacity="0.4" fill-rule="evenodd" clip-rule="evenodd" d="M12 3.78947C10.9218 3.78947 9.85415 4.00184 8.858 4.41446C7.86186 4.82708 6.95673 5.43186 6.19431 6.19428C5.4319 6.9567 4.82711 7.86182 4.41449 8.85796C4.00188 9.85411 3.7895 10.9218 3.7895 12C3.7895 13.0782 4.00187 14.1459 4.41449 15.142C4.82711 16.1382 5.43189 17.0433 6.19431 17.8057C6.95673 18.5681 7.86185 19.1729 8.858 19.5855C9.85414 19.9982 10.9218 20.2105 12 20.2105C13.0782 20.2105 14.1459 19.9982 15.1421 19.5855C16.1382 19.1729 17.0433 18.5681 17.8057 17.8057C18.5682 17.0433 19.1729 16.1382 19.5856 15.142C19.9982 14.1459 20.2106 13.0782 20.2106 12C20.2106 10.9218 19.9982 9.85412 19.5856 8.85797C19.173 7.86182 18.5682 6.9567 17.8057 6.19428C17.0433 5.43186 16.1382 4.82708 15.1421 4.41446C14.1459 4.00185 13.0783 3.78947 12 3.78947ZM7.40784 0.913443C8.86374 0.310387 10.4242 -1.05406e-06 12 0C13.5759 0 15.1363 0.310389 16.5922 0.913446C18.0481 1.5165 19.371 2.40042 20.4853 3.51472C21.5996 4.62902 22.4835 5.95189 23.0866 7.4078C23.6896 8.86371 24 10.4241 24 12C24 13.5759 23.6896 15.1363 23.0866 16.5922C22.4835 18.0481 21.5996 19.371 20.4853 20.4853C19.371 21.5996 18.0481 22.4835 16.5922 23.0866C15.1363 23.6896 13.5759 24 12 24C10.4242 24 8.86373 23.6896 7.40782 23.0866C5.95192 22.4835 4.62905 21.5996 3.51475 20.4853C2.40044 19.371 1.51653 18.0481 0.913474 16.5922C0.310418 15.1363 2.97647e-05 13.5759 3.05176e-05 12C3.12705e-05 10.4241 0.310421 8.8637 0.913479 7.40779C1.51654 5.95189 2.40045 4.62902 3.51475 3.51471C4.62906 2.40041 5.95193 1.5165 7.40784 0.913443Z"/>
<path fill-rule="evenodd" clip-rule="evenodd" d="M5.33316 2.02236C7.30655 0.703788 9.62663 0 12 0C13.0464 0 13.8947 0.848303 13.8947 1.89474C13.8947 2.94117 13.0464 3.78947 12 3.78947C10.3761 3.78947 8.7887 4.27101 7.43848 5.1732C6.08827 6.07538 5.0359 7.35769 4.41447 8.85797C3.79303 10.3582 3.63044 12.0091 3.94724 13.6018C4.26405 15.1945 5.04602 16.6575 6.19429 17.8057C6.93423 18.5457 6.93423 19.7453 6.19429 20.4853C5.45435 21.2252 4.25466 21.2252 3.51472 20.4853C1.83649 18.8071 0.693605 16.6689 0.230582 14.3411C-0.232441 12.0133 0.00519953 9.60051 0.913451 7.4078C1.8217 5.21508 3.35977 3.34094 5.33316 2.02236Z"/>
</svg>
