<svg width="26" height="26" viewBox="0 0 26 26" fill="none" xmlns="http://www.w3.org/2000/svg">
<path opacity="0.4" fill-rule="evenodd" clip-rule="evenodd" d="M13 4.5C11.8838 4.5 10.7785 4.71986 9.7472 5.14702C8.71593 5.57419 7.77889 6.20029 6.9896 6.98959C6.2003 7.77889 5.57419 8.71592 5.14703 9.74719C4.71986 10.7785 4.5 11.8838 4.5 13C4.5 14.1162 4.71986 15.2215 5.14702 16.2528C5.57419 17.2841 6.20029 18.2211 6.98959 19.0104C7.77889 19.7997 8.71592 20.4258 9.74719 20.853C10.7785 21.2801 11.8838 21.5 13 21.5C14.1162 21.5 15.2215 21.2801 16.2528 20.853C17.2841 20.4258 18.2211 19.7997 19.0104 19.0104C19.7997 18.2211 20.4258 17.2841 20.853 16.2528C21.2801 15.2215 21.5 14.1162 21.5 13C21.5 11.8838 21.2801 10.7785 20.853 9.7472C20.4258 8.71593 19.7997 7.77889 19.0104 6.9896C18.2211 6.2003 17.2841 5.57419 16.2528 5.14703C15.2215 4.71986 14.1162 4.5 13 4.5ZM25.5 13C25.5 14.6415 25.1767 16.267 24.5485 17.7835C23.9203 19.3001 22.9996 20.6781 21.8388 21.8388C20.6781 22.9996 19.3001 23.9203 17.7835 24.5485C16.267 25.1767 14.6415 25.5 13 25.5C11.3585 25.5 9.73303 25.1767 8.21646 24.5485C6.69989 23.9203 5.3219 22.9996 4.16116 21.8388C3.00043 20.6781 2.07969 19.3001 1.4515 17.7835C0.823321 16.267 0.5 14.6415 0.5 13C0.5 11.3585 0.823323 9.73302 1.45151 8.21645C2.07969 6.69988 3.00044 5.32189 4.16117 4.16116C5.3219 3.00043 6.69989 2.07969 8.21646 1.4515C9.73303 0.823321 11.3585 0.499999 13 0.5C14.6415 0.500001 16.267 0.823324 17.7836 1.45151C19.3001 2.07969 20.6781 3.00044 21.8388 4.16117C22.9996 5.3219 23.9203 6.69989 24.5485 8.21646C25.1767 9.73303 25.5 11.3585 25.5 13Z"/>
<path fill-rule="evenodd" clip-rule="evenodd" d="M11 2.5C11 1.39543 11.8954 0.5 13 0.5C14.6415 0.500001 16.267 0.823324 17.7836 1.45151C19.3001 2.07969 20.6781 3.00044 21.8388 4.16117C22.9996 5.3219 23.9203 6.69989 24.5485 8.21646C25.1767 9.73303 25.5 11.3585 25.5 13C25.5 14.6415 25.1767 16.267 24.5485 17.7835C23.9203 19.3001 22.9996 20.6781 21.8388 21.8388C21.0578 22.6199 19.7915 22.6199 19.0104 21.8388C18.2294 21.0578 18.2294 19.7915 19.0104 19.0104C19.7997 18.2211 20.4258 17.2841 20.853 16.2528C21.2801 15.2215 21.5 14.1162 21.5 13C21.5 11.8838 21.2801 10.7785 20.853 9.7472C20.4258 8.71593 19.7997 7.77889 19.0104 6.9896C18.2211 6.2003 17.2841 5.57419 16.2528 5.14703C15.2215 4.71986 14.1162 4.5 13 4.5C11.8954 4.5 11 3.60457 11 2.5Z"/>
</svg>
