<svg width="24" height="24" viewBox="0 0 24 24" fill="none" xmlns="http://www.w3.org/2000/svg">
<path fill-rule="evenodd" clip-rule="evenodd" d="M12.2882 4.00482L12.002 4C7.86108 4 4.12926 6.92308 2.06091 11.7058C1.9797 11.8936 1.9797 12.1064 2.06091 12.2942L2.20424 12.6168C4.24638 17.0931 7.77544 19.8644 11.7118 19.9952L11.998 20C16.1389 20 19.8707 17.0769 21.9391 12.2942C22.0213 12.104 22.0202 11.8884 21.9361 11.699L21.7968 11.3856C19.7497 6.90091 16.2192 4.13547 12.2882 4.00482ZM12.009 5.48942L12.2479 5.49456L12.5149 5.50845C15.7122 5.73484 18.6525 8.10553 20.429 11.9991L20.4197 12.0231C18.5987 16.0005 15.5569 18.3853 12.2589 18.505L12.004 18.5088L11.7469 18.5054L11.4806 18.4915C8.38271 18.2721 5.52637 16.0344 3.73914 12.3597L3.57 11.9991L3.72658 11.6662C5.61117 7.77315 8.69148 5.49027 12.009 5.48942ZM11.9995 8.11346C9.8391 8.11346 8.0885 9.85313 8.0885 12.0002C8.0885 14.1465 9.83929 15.8859 11.9995 15.8859C14.1598 15.8859 15.9115 14.1463 15.9115 12.0002C15.9115 9.85325 14.16 8.11346 11.9995 8.11346ZM11.9995 9.60378C13.3317 9.60378 14.4115 10.6764 14.4115 12.0002C14.4115 13.3231 13.3316 14.3956 11.9995 14.3956C10.6677 14.3956 9.5885 13.3234 9.5885 12.0002C9.5885 10.6761 10.6676 9.60378 11.9995 9.60378Z" fill="#5E6678"/>
</svg>
